ffmpeg version 6.1.1-3ubuntu5 Copyright (c) 2000-2023 the FFmpeg developers
  built with gcc 13 (Ubuntu 13.2.0-23ubuntu3)
  configuration: --prefix=/usr --extra-version=3ubuntu5 --toolchain=hardened --libdir=/usr/lib/x86_64-linux-gnu --incdir=/usr/include/x86_64-linux-gnu --arch=amd64 --enable-gpl --disable-stripping --disable-omx --enable-gnutls --enable-libaom --enable-libass --enable-libbs2b --enable-libcaca --enable-libcdio --enable-libcodec2 --enable-libdav1d --enable-libflite --enable-libfontconfig --enable-libfreetype --enable-libfribidi --enable-libglslang --enable-libgme --enable-libgsm --enable-libharfbuzz --enable-libmp3lame --enable-libmysofa --enable-libopenjpeg --enable-libopenmpt --enable-libopus --enable-librubberband --enable-libshine --enable-libsnappy --enable-libsoxr --enable-libspeex --enable-libtheora --enable-libtwolame --enable-libvidstab --enable-libvorbis --enable-libvpx --enable-libwebp --enable-libx265 --enable-libxml2 --enable-libxvid --enable-libzimg --enable-openal --enable-opencl --enable-opengl --disable-sndio --enable-libvpl --disable-libmfx --enable-libdc1394 --enable-libdrm --enable-libiec61883 --enable-chromaprint --enable-frei0r --enable-ladspa --enable-libbluray --enable-libjack --enable-libpulse --enable-librabbitmq --enable-librist --enable-libsrt --enable-libssh --enable-libsvtav1 --enable-libx264 --enable-libzmq --enable-libzvbi --enable-lv2 --enable-sdl2 --enable-libplacebo --enable-librav1e --enable-pocketsphinx --enable-librsvg --enable-libjxl --enable-shared
  libavutil      58. 29.100 / 58. 29.100
  libavcodec     60. 31.102 / 60. 31.102
  libavformat    60. 16.100 / 60. 16.100
  libavdevice    60.  3.100 / 60.  3.100
  libavfilter     9. 12.100 /  9. 12.100
  libswscale      7.  5.100 /  7.  5.100
  libswresample   4. 12.100 /  4. 12.100
  libpostproc    57.  3.100 / 57.  3.100
Input #0, avi, from '/mnt/media/tv/Ideal/Season 5/ideal.s05e06.dvdrip.xvid-haggis.avi':
  Metadata:
    software        : VirtualDubMod 1.5.10.2 (build 2542/release)
  Duration: 00:28:27.00, start: 0.000000, bitrate: 1141 kb/s
  Stream #0:0: Video: mpeg4 (Advanced Simple Profile) (XVID / 0x44495658), yuv420p, 624x352 [SAR 1:1 DAR 39:22], 1006 kb/s, 25 fps, 25 tbr, 25 tbn
  Stream #0:1: Audio: mp3 (U[0][0][0] / 0x0055), 48000 Hz, stereo, fltp, 122 kb/s
Stream mapping:
  Stream #0:1 -> #0:0 (mp3 (mp3float) -> pcm_s16le (native))
Press [q] to stop, [?] for help
Output #0, wav, to '/mnt/card/tmp/tmppprm4rtq/audio16k.wav':
  Metadata:
    software        : VirtualDubMod 1.5.10.2 (build 2542/release)
    ISFT            : Lavf60.16.100
  Stream #0:0: Audio: pcm_s16le ([1][0][0][0] / 0x0001), 16000 Hz, mono, s16, 256 kb/s
    Metadata:
      encoder         : Lavc60.31.102 pcm_s16le
size=       0kB time=00:00:00.00 bitrate=N/A speed=N/A    size=   14080kB time=00:07:35.61 bitrate= 253.2kbits/s speed= 911x    size=   28672kB time=00:15:23.47 bitrate= 254.3kbits/s speed= 923x    size=   43776kB time=00:23:26.99 bitrate= 254.9kbits/s speed= 938x    [out#0/wav @ 0x55afb8be96c0] video:0kB audio:53344kB subtitle:0kB other streams:0kB global headers:0kB muxing overhead: 0.000143%
size=   53344kB time=00:28:26.99 bitrate= 256.0kbits/s speed= 940x    
/mnt/media/archive/dev/apps/mistral-asr/.venv/lib/python3.12/site-packages/transformers/utils/hub.py:111: FutureWarning: Using `TRANSFORMERS_CACHE` is deprecated and will be removed in v5 of Transformers. Use `HF_HOME` instead.
  warnings.warn(
>> extracting audio: ffmpeg -y -i '/mnt/media/tv/Ideal/Season 5/ideal.s05e06.dvdrip.xvid-haggis.avi' -vn -acodec pcm_s16le -ar 16000 -ac 1 /mnt/card/tmp/tmppprm4rtq/audio16k.wav
>> loading Voxtral model: mistralai/Voxtral-Mini-3B-2507 (device=cpu)
Fetching 1 files:   0%|          | 0/1 [00:00<?, ?it/s]Fetching 1 files: 100%|██████████| 1/1 [00:00<00:00, 37117.73it/s]
Fetching 1 files:   0%|          | 0/1 [00:00<?, ?it/s]Fetching 1 files: 100%|██████████| 1/1 [00:00<00:00, 20867.18it/s]
Loading checkpoint shards:   0%|          | 0/2 [00:00<?, ?it/s]Loading checkpoint shards:  50%|█████     | 1/2 [00:00<00:00,  1.20it/s]Loading checkpoint shards: 100%|██████████| 2/2 [00:03<00:00,  1.67s/it]Loading checkpoint shards: 100%|██████████| 2/2 [00:03<00:00,  1.54s/it]
